# xmcd
#
# Track frame offsets:
#	150
#	16152
#	28106
#	45438
#	56030
#	67782
#	79091
#	93044
#	108206
#	120966
#	133059
#	149788
#	160740
#	173401
#
# Disc length: 2461 seconds
#
# Revision: 1
# Processed by: cddbd v1.5.2PL0 Copyright (c) Steve Scherf et al.
# Submitted via: audiograbber 1.83.01
#
DISCID=a6099b0e
DTITLE=Key Country Band - Knockin At Your Door
DYEAR=1900
DGENRE=Country
TTITLE0=Somebody's Knockin
TTITLE1=Travelin To The Same Song
TTITLE2=Neon Moon
TTITLE3=Crying In The Rain
TTITLE4=Mexico
TTITLE5=Don't Be Cruel
TTITLE6=You Belong To Me
TTITLE7=Japanese Sunset
TTITLE8=Boys In Boots
TTITLE9=Crazy
TTITLE10=Your Only Lonely
TTITLE11=It's A Little Too Late
TTITLE12=Carmelita
TTITLE13=Sleepwalk
EXTD=
EXTT0=
EXTT1=
EXTT2=
EXTT3=
EXTT4=
EXTT5=
EXTT6=
EXTT7=
EXTT8=
EXTT9=
EXTT10=
EXTT11=
EXTT12=
EXTT13=
PLAYORDER=
